<svg width="150" height="25" viewBox="0 0 150 25" fill="none" xmlns="http://www.w3.org/2000/svg">
<g clip-path="url(#clip0_60_15)">
<path d="M14 10C14 10.5304 13.7893 11.0391 13.4142 11.4142C13.0391 11.7893 12.5304 12 12 12H6L2 16V5C2 3.9 2.9 3 4 3H12C12.5304 3 13.0391 3.21071 13.4142 3.58579C13.7893 3.96086 14 4.46957 14 5V10Z" stroke="black" stroke-width="3" stroke-linecap="round" stroke-linejoin="round"/>
<path d="M18 10H20C20.5304 10 21.0391 10.2107 21.4142 10.5858C21.7893 10.9609 22 11.4696 22 12V23L18 19H12C11.4696 19 10.9609 18.7893 10.5858 18.4142C10.2107 18.0391 10 17.5304 10 17V16" stroke="black" stroke-width="3" stroke-linecap="round" stroke-linejoin="round"/>
</g>
<path d="M34 12.64C34.2133 11.5333 34.7267 10.68 35.54 10.08C36.3667 9.46667 37.4333 9.16 38.74 9.16C40.26 9.16 41.4133 9.54667 42.2 10.32C43 11.0933 43.4 12.2267 43.4 13.72V17.36C43.4 17.6533 43.4533 17.86 43.56 17.98C43.68 18.0867 43.8467 18.14 44.06 18.14H44.48V20L43.88 20.02H43.66C43.0467 20.0467 42.5 19.9533 42.02 19.74C41.54 19.5133 41.26 19.06 41.18 18.38C40.9133 18.94 40.4733 19.3933 39.86 19.74C39.26 20.0733 38.52 20.24 37.64 20.24C36.5467 20.24 35.6333 19.9667 34.9 19.42C34.18 18.8733 33.82 18.14 33.82 17.22C33.82 16.5533 33.9733 16.0133 34.28 15.6C34.6 15.1867 35.0467 14.8667 35.62 14.64C36.1933 14.4 36.94 14.1867 37.86 14L40.82 13.42C40.82 12.5933 40.6467 11.9867 40.3 11.6C39.9533 11.2 39.4333 11 38.74 11C38.1667 11 37.7 11.1533 37.34 11.46C36.98 11.7533 36.74 12.1933 36.62 12.78L34 12.64ZM36.48 17.14C36.48 17.5267 36.64 17.84 36.96 18.08C37.28 18.32 37.74 18.44 38.34 18.44C38.8333 18.44 39.2667 18.32 39.64 18.08C40.0267 17.84 40.3267 17.4867 40.54 17.02C40.7667 16.54 40.88 15.9667 40.88 15.3V15.16L38.86 15.52C38.7667 15.5333 38.6667 15.5467 38.56 15.56C38.08 15.6533 37.6933 15.7533 37.4 15.86C37.12 15.9533 36.8933 16.1067 36.72 16.32C36.56 16.52 36.48 16.7933 36.48 17.14ZM52.5936 12.8C52.5003 12.28 52.2469 11.8667 51.8336 11.56C51.4203 11.24 50.9536 11.08 50.4336 11.08C49.9269 11.08 49.5003 11.2067 49.1536 11.46C48.8203 11.7133 48.6603 12.0467 48.6736 12.46C48.6869 12.86 48.8869 13.1667 49.2736 13.38C49.6603 13.5933 50.1736 13.76 50.8136 13.88C51.8403 14.0533 52.6736 14.2667 53.3136 14.52C53.9669 14.7733 54.4603 15.1133 54.7936 15.54C55.1403 15.9667 55.3136 16.5067 55.3136 17.16C55.3136 17.84 55.1136 18.4133 54.7136 18.88C54.3136 19.3333 53.7736 19.6733 53.0936 19.9C52.4136 20.1267 51.6469 20.24 50.7936 20.24C49.8336 20.24 48.9803 20.1 48.2336 19.82C47.5003 19.5267 46.9136 19.1067 46.4736 18.56C46.0469 18.0133 45.8069 17.3733 45.7536 16.64L48.3736 16.5C48.4403 16.8733 48.5736 17.1933 48.7736 17.46C48.9736 17.7267 49.2403 17.9333 49.5736 18.08C49.9069 18.2267 50.2936 18.3 50.7336 18.3C51.2536 18.3 51.7069 18.2 52.0936 18C52.4803 17.8 52.6669 17.5 52.6536 17.1C52.6536 16.82 52.5669 16.5933 52.3936 16.42C52.2336 16.2467 52.0269 16.12 51.7736 16.04C51.5336 15.9467 51.2069 15.8533 50.7936 15.76C50.6869 15.7333 50.5536 15.7067 50.3936 15.68C49.4069 15.48 48.6069 15.26 47.9936 15.02C47.3803 14.78 46.8936 14.46 46.5336 14.06C46.1869 13.6467 46.0136 13.1267 46.0136 12.5C46.0136 11.8067 46.1936 11.2133 46.5536 10.72C46.9269 10.2133 47.4536 9.82667 48.1336 9.56C48.8269 9.29333 49.6403 9.16 50.5736 9.16C51.8269 9.16 52.8603 9.47333 53.6736 10.1C54.5003 10.7267 55.0069 11.5867 55.1936 12.68L52.5936 12.8ZM63.785 12.8C63.6917 12.28 63.4383 11.8667 63.025 11.56C62.6117 11.24 62.145 11.08 61.625 11.08C61.1183 11.08 60.6917 11.2067 60.345 11.46C60.0117 11.7133 59.8517 12.0467 59.865 12.46C59.8783 12.86 60.0783 13.1667 60.465 13.38C60.8517 13.5933 61.365 13.76 62.005 13.88C63.0317 14.0533 63.865 14.2667 64.505 14.52C65.1583 14.7733 65.6517 15.1133 65.985 15.54C66.3317 15.9667 66.505 16.5067 66.505 17.16C66.505 17.84 66.305 18.4133 65.905 18.88C65.505 19.3333 64.965 19.6733 64.285 19.9C63.605 20.1267 62.8383 20.24 61.985 20.24C61.025 20.24 60.1717 20.1 59.425 19.82C58.6917 19.5267 58.105 19.1067 57.665 18.56C57.2383 18.0133 56.9983 17.3733 56.945 16.64L59.565 16.5C59.6317 16.8733 59.765 17.1933 59.965 17.46C60.165 17.7267 60.4317 17.9333 60.765 18.08C61.0983 18.2267 61.485 18.3 61.925 18.3C62.445 18.3 62.8983 18.2 63.285 18C63.6717 17.8 63.8583 17.5 63.845 17.1C63.845 16.82 63.7583 16.5933 63.585 16.42C63.425 16.2467 63.2183 16.12 62.965 16.04C62.725 15.9467 62.3983 15.8533 61.985 15.76C61.8783 15.7333 61.745 15.7067 61.585 15.68C60.5983 15.48 59.7983 15.26 59.185 15.02C58.5717 14.78 58.085 14.46 57.725 14.06C57.3783 13.6467 57.205 13.1267 57.205 12.5C57.205 11.8067 57.385 11.2133 57.745 10.72C58.1183 10.2133 58.645 9.82667 59.325 9.56C60.0183 9.29333 60.8317 9.16 61.765 9.16C63.0183 9.16 64.0517 9.47333 64.865 10.1C65.6917 10.7267 66.1983 11.5867 66.385 12.68L63.785 12.8ZM70.9639 9.4V20H68.4039V9.4H70.9639ZM71.0239 5.82V7.94H68.3639V5.82H71.0239ZM79.9764 12.8C79.8831 12.28 79.6297 11.8667 79.2164 11.56C78.8031 11.24 78.3364 11.08 77.8164 11.08C77.3097 11.08 76.8831 11.2067 76.5364 11.46C76.2031 11.7133 76.0431 12.0467 76.0564 12.46C76.0697 12.86 76.2697 13.1667 76.6564 13.38C77.0431 13.5933 77.5564 13.76 78.1964 13.88C79.2231 14.0533 80.0564 14.2667 80.6964 14.52C81.3497 14.7733 81.8431 15.1133 82.1764 15.54C82.5231 15.9667 82.6964 16.5067 82.6964 17.16C82.6964 17.84 82.4964 18.4133 82.0964 18.88C81.6964 19.3333 81.1564 19.6733 80.4764 19.9C79.7964 20.1267 79.0297 20.24 78.1764 20.24C77.2164 20.24 76.3631 20.1 75.6164 19.82C74.8831 19.5267 74.2964 19.1067 73.8564 18.56C73.4297 18.0133 73.1897 17.3733 73.1364 16.64L75.7564 16.5C75.8231 16.8733 75.9564 17.1933 76.1564 17.46C76.3564 17.7267 76.6231 17.9333 76.9564 18.08C77.2897 18.2267 77.6764 18.3 78.1164 18.3C78.6364 18.3 79.0897 18.2 79.4764 18C79.8631 17.8 80.0497 17.5 80.0364 17.1C80.0364 16.82 79.9497 16.5933 79.7764 16.42C79.6164 16.2467 79.4097 16.12 79.1564 16.04C78.9164 15.9467 78.5897 15.8533 78.1764 15.76C78.0697 15.7333 77.9364 15.7067 77.7764 15.68C76.7897 15.48 75.9897 15.26 75.3764 15.02C74.7631 14.78 74.2764 14.46 73.9164 14.06C73.5697 13.6467 73.3964 13.1267 73.3964 12.5C73.3964 11.8067 73.5764 11.2133 73.9364 10.72C74.3097 10.2133 74.8364 9.82667 75.5164 9.56C76.2097 9.29333 77.0231 9.16 77.9564 9.16C79.2097 9.16 80.2431 9.47333 81.0564 10.1C81.8831 10.7267 82.3897 11.5867 82.5764 12.68L79.9764 12.8ZM88.1009 7V16.74C88.1009 17.1533 88.2009 17.4733 88.4009 17.7C88.6143 17.9133 88.9143 18.02 89.3009 18.02H90.9009V20H88.8809C87.7876 20 86.9543 19.7267 86.3809 19.18C85.8209 18.6333 85.5409 17.82 85.5409 16.74V7H88.1009ZM90.9009 9.4V11.38H83.8609V9.4H90.9009ZM92.5547 12.64C92.768 11.5333 93.2814 10.68 94.0947 10.08C94.9214 9.46667 95.988 9.16 97.2947 9.16C98.8147 9.16 99.968 9.54667 100.755 10.32C101.555 11.0933 101.955 12.2267 101.955 13.72V17.36C101.955 17.6533 102.008 17.86 102.115 17.98C102.235 18.0867 102.401 18.14 102.615 18.14H103.035V20L102.435 20.02H102.215C101.601 20.0467 101.055 19.9533 100.575 19.74C100.095 19.5133 99.8147 19.06 99.7347 18.38C99.468 18.94 99.028 19.3933 98.4147 19.74C97.8147 20.0733 97.0747 20.24 96.1947 20.24C95.1014 20.24 94.188 19.9667 93.4547 19.42C92.7347 18.8733 92.3747 18.14 92.3747 17.22C92.3747 16.5533 92.528 16.0133 92.8347 15.6C93.1547 15.1867 93.6014 14.8667 94.1747 14.64C94.748 14.4 95.4947 14.1867 96.4147 14L99.3747 13.42C99.3747 12.5933 99.2014 11.9867 98.8547 11.6C98.508 11.2 97.988 11 97.2947 11C96.7214 11 96.2547 11.1533 95.8947 11.46C95.5347 11.7533 95.2947 12.1933 95.1747 12.78L92.5547 12.64ZM95.0347 17.14C95.0347 17.5267 95.1947 17.84 95.5147 18.08C95.8347 18.32 96.2947 18.44 96.8947 18.44C97.388 18.44 97.8214 18.32 98.1947 18.08C98.5814 17.84 98.8814 17.4867 99.0947 17.02C99.3214 16.54 99.4347 15.9667 99.4347 15.3V15.16L97.4147 15.52C97.3214 15.5333 97.2214 15.5467 97.1147 15.56C96.6347 15.6533 96.248 15.7533 95.9547 15.86C95.6747 15.9533 95.448 16.1067 95.2747 16.32C95.1147 16.52 95.0347 16.7933 95.0347 17.14ZM107.247 9.4L107.367 12.38L107.047 12.22C107.194 11.1667 107.574 10.3933 108.187 9.9C108.814 9.40667 109.587 9.16 110.507 9.16C111.654 9.16 112.547 9.52667 113.187 10.26C113.827 10.98 114.147 11.9533 114.147 13.18V20H111.567V14C111.567 13.0667 111.427 12.3733 111.147 11.92C110.867 11.4667 110.394 11.24 109.727 11.24C109.021 11.24 108.467 11.48 108.067 11.96C107.681 12.4267 107.487 13.1067 107.487 14V20H104.927V9.4H107.247ZM120.288 7V16.74C120.288 17.1533 120.388 17.4733 120.588 17.7C120.802 17.9133 121.102 18.02 121.488 18.02H123.088V20H121.068C119.975 20 119.142 19.7267 118.568 19.18C118.008 18.6333 117.728 17.82 117.728 16.74V7H120.288ZM123.088 9.4V11.38H116.048V9.4H123.088ZM131.362 13.08V15.24H124.562V13.08H131.362ZM140.34 20L140.28 17.08L140.6 17.24C140.44 18.28 140.053 19.04 139.44 19.52C138.826 20 138.066 20.24 137.16 20.24C136.04 20.24 135.16 19.8733 134.52 19.14C133.893 18.4067 133.58 17.4333 133.58 16.22V9.4H136.14V15.38C136.14 16.3267 136.28 17.0267 136.56 17.48C136.84 17.9333 137.306 18.16 137.96 18.16C138.653 18.16 139.186 17.9267 139.56 17.46C139.946 16.98 140.14 16.2867 140.14 15.38V9.4H142.7V20H140.34ZM147.858 9.4V20H145.298V9.4H147.858ZM147.918 5.82V7.94H145.258V5.82H147.918Z" fill="black"/>
<defs>
<clipPath id="clip0_60_15">
<rect width="24" height="24" fill="white" transform="translate(0 1)"/>
</clipPath>
</defs>
</svg>
